<mxfile host="65bd71144e">
    <diagram id="0xoyhoB9InXKQoQoNSjv" name="Page-1">
        <mxGraphModel dx="1409" dy="1052" grid="1" gridSize="10" guides="1" tooltips="1" connect="1" arrows="1" fold="1" page="1" pageScale="1" pageWidth="850" pageHeight="1100" background="#FFFFFF" math="0" shadow="0">
            <root>
                <mxCell id="0"/>
                <mxCell id="1" parent="0"/>
                <mxCell id="13" value="" style="endArrow=oval;html=1;fontSize=8;entryX=0;entryY=0.5;entryDx=0;entryDy=0;exitX=1;exitY=0.5;exitDx=0;exitDy=0;fontColor=#525252;strokeWidth=30;strokeColor=#2A2A2A;shadow=0;curved=1;targetPerimeterSpacing=3;sourcePerimeterSpacing=2;startArrow=oval;startFill=1;endFill=1;" parent="1" source="6" target="5" edge="1">
                    <mxGeometry width="50" height="50" relative="1" as="geometry">
                        <mxPoint x="468.1358078563409" y="414.40677966101697" as="sourcePoint"/>
                        <mxPoint x="574.9158584204617" y="307.6271186440678" as="targetPoint"/>
                    </mxGeometry>
                </mxCell>
                <mxCell id="2" value="&lt;p style=&quot;line-height: 0.7&quot;&gt;GEO&lt;br style=&quot;font-size: 30px&quot;&gt;&lt;font style=&quot;line-height: 0.7 ; font-size: 18px&quot; color=&quot;#ededed&quot;&gt;(computation)&lt;/font&gt;&lt;br style=&quot;font-size: 30px&quot;&gt;&lt;/p&gt;" style="ellipse;whiteSpace=wrap;html=1;fontColor=#FFFFFF;shadow=1;strokeColor=none;fillColor=#2A2A2A;fontSize=30;" parent="1" vertex="1">
                    <mxGeometry x="339.99974717939585" y="30" width="170.8480809025933" height="170.84745762711864" as="geometry"/>
                </mxCell>
                <mxCell id="5" value="&lt;p style=&quot;line-height: 0.7 ; font-size: 33px&quot;&gt;VPL&lt;br&gt;&lt;span style=&quot;font-size: 18px&quot;&gt;&lt;font color=&quot;#ededed&quot;&gt;(visual &lt;br&gt;programming lanuage)&lt;/font&gt;&lt;/span&gt;&lt;br&gt;&lt;/p&gt;" style="ellipse;whiteSpace=wrap;html=1;fontColor=#FFFFFF;shadow=1;strokeColor=none;fillColor=#2A2A2A;fontSize=30;" parent="1" vertex="1">
                    <mxGeometry x="553.5598483076376" y="414.40677966101697" width="170.8480809025933" height="170.84745762711864" as="geometry"/>
                </mxCell>
                <mxCell id="6" value="&lt;p style=&quot;line-height: 0.7&quot;&gt;WEB&lt;br style=&quot;font-size: 30px&quot;&gt;&lt;font style=&quot;font-size: 18px&quot; color=&quot;#ededed&quot;&gt;(client-side application)&lt;/font&gt;&lt;/p&gt;" style="ellipse;whiteSpace=wrap;html=1;fontColor=#FFFFFF;shadow=1;strokeColor=none;fillColor=#2A2A2A;fontSize=30;" parent="1" vertex="1">
                    <mxGeometry x="126.43964605115426" y="414.40677966101697" width="170.8480809025933" height="170.84745762711864" as="geometry"/>
                </mxCell>
                <mxCell id="10" value="&lt;font&gt;&lt;font style=&quot;font-size: 40px&quot;&gt;?&lt;/font&gt;&lt;br&gt;&lt;/font&gt;" style="ellipse;whiteSpace=wrap;html=1;fontColor=#FFFFFF;shadow=1;strokeColor=none;fillColor=#2A2A2A;" parent="1" vertex="1">
                    <mxGeometry x="339.99974717939585" y="284.135593220339" width="170.8480809025933" height="170.84745762711864" as="geometry"/>
                </mxCell>
                <mxCell id="11" value="" style="endArrow=oval;html=1;fontSize=8;exitX=0.295;exitY=0.039;exitDx=0;exitDy=0;exitPerimeter=0;entryX=0.759;entryY=0.932;entryDx=0;entryDy=0;entryPerimeter=0;fontColor=#525252;strokeWidth=30;strokeColor=#2A2A2A;shadow=0;curved=1;targetPerimeterSpacing=3;sourcePerimeterSpacing=2;startArrow=oval;startFill=1;endFill=1;labelBorderColor=none;" parent="1" source="5" target="2" edge="1">
                    <mxGeometry width="50" height="50" relative="1" as="geometry">
                        <mxPoint x="489.491817969165" y="371.6949152542373" as="sourcePoint"/>
                        <mxPoint x="532.2038381948134" y="222.20338983050848" as="targetPoint"/>
                    </mxGeometry>
                </mxCell>
                <mxCell id="12" value="" style="endArrow=oval;html=1;fontSize=8;entryX=0.202;entryY=0.918;entryDx=0;entryDy=0;entryPerimeter=0;exitX=0.766;exitY=0.046;exitDx=0;exitDy=0;exitPerimeter=0;fontColor=#525252;strokeWidth=30;strokeColor=#2A2A2A;shadow=0;curved=1;targetPerimeterSpacing=3;sourcePerimeterSpacing=2;startArrow=oval;startFill=1;endFill=1;" parent="1" source="6" target="2" edge="1">
                    <mxGeometry width="50" height="50" relative="1" as="geometry">
                        <mxPoint x="468.1358078563409" y="414.40677966101697" as="sourcePoint"/>
                        <mxPoint x="574.9158584204617" y="307.6271186440678" as="targetPoint"/>
                    </mxGeometry>
                </mxCell>
                <mxCell id="14" value="&lt;font style=&quot;font-size: 18px&quot;&gt;- Omnibase&lt;br&gt;- CJval&lt;/font&gt;" style="text;html=1;align=left;verticalAlign=middle;resizable=0;points=[];autosize=1;strokeColor=none;fillColor=none;fontSize=8;rotation=-63;fontColor=#525252;shadow=1;" parent="1" vertex="1">
                    <mxGeometry x="217.32128245732122" y="269.10169491525426" width="110" height="30" as="geometry"/>
                </mxCell>
                <mxCell id="15" value="&lt;font style=&quot;font-size: 18px&quot;&gt;- FME&lt;br&gt;- GeoFlow&lt;/font&gt;" style="text;html=1;align=left;verticalAlign=middle;resizable=0;points=[];autosize=1;strokeColor=none;fillColor=none;fontSize=8;rotation=58;fontColor=#525252;shadow=1;" parent="1" vertex="1">
                    <mxGeometry x="532.9959089845825" y="267.20745762711863" width="100" height="30" as="geometry"/>
                </mxCell>
                <mxCell id="18" value="&lt;font style=&quot;font-size: 18px&quot;&gt;BBG&lt;/font&gt;" style="text;html=1;align=left;verticalAlign=middle;resizable=0;points=[];autosize=1;strokeColor=none;fillColor=none;fontSize=8;rotation=-63;fontColor=#FFFFFF;shadow=1;" parent="1" vertex="1">
                    <mxGeometry x="290.0027924531862" y="296.20305084745763" width="50" height="20" as="geometry"/>
                </mxCell>
                <mxCell id="20" value="&lt;font style=&quot;font-size: 18px&quot;&gt;WEB-VPLs&lt;/font&gt;" style="text;html=1;align=left;verticalAlign=middle;resizable=0;points=[];autosize=1;strokeColor=none;fillColor=none;fontSize=8;rotation=0;fontColor=#FFFFFF;shadow=1;" parent="1" vertex="1">
                    <mxGeometry x="377.56407032193226" y="490.9981355932203" width="110" height="20" as="geometry"/>
                </mxCell>
                <mxCell id="21" value="&lt;font style=&quot;font-size: 18px&quot;&gt;GEO-VPLs:&lt;/font&gt;&lt;span style=&quot;font-size: 12px&quot;&gt;&lt;br&gt;&lt;/span&gt;" style="text;html=1;align=left;verticalAlign=middle;resizable=0;points=[];autosize=1;strokeColor=none;fillColor=none;fontSize=8;rotation=60;fontColor=#FFFFFF;shadow=1;" parent="1" vertex="1">
                    <mxGeometry x="486.4237876306926" y="303.2033898305085" width="110" height="20" as="geometry"/>
                </mxCell>
                <mxCell id="17" value="&lt;span style=&quot;font-size: 18px&quot;&gt;- Scratch&lt;br&gt;- Blockly&lt;br&gt;&lt;/span&gt;" style="text;html=1;align=left;verticalAlign=middle;resizable=0;points=[];autosize=1;strokeColor=none;fillColor=none;fontSize=8;rotation=0;fontColor=#525252;shadow=1;" parent="1" vertex="1">
                    <mxGeometry x="377.41999999999996" y="532" width="90" height="30" as="geometry"/>
                </mxCell>
            </root>
        </mxGraphModel>
    </diagram>
</mxfile>